<mxfile host="Electron" modified="2023-11-13T17:08:30.498Z" agent="Mozilla/5.0 (Windows NT 10.0; Win64; x64) AppleWebKit/537.36 (KHTML, like Gecko) draw.io/22.0.0 Chrome/114.0.5735.289 Electron/25.8.3 Safari/537.36" etag="Rry4EsfFapEQHHpE8TDW" version="22.0.0" type="device">
  <diagram name="Page-1" id="yw9UAJjRdSMaHNiGSLvy">
    <mxGraphModel dx="1098" dy="828" grid="0" gridSize="10" guides="1" tooltips="1" connect="1" arrows="1" fold="1" page="0" pageScale="1" pageWidth="827" pageHeight="1169" math="0" shadow="0">
      <root>
        <mxCell id="0" />
        <mxCell id="1" parent="0" />
        <mxCell id="Qa4HK2fdvQcwyBmw-q11-4" value="" style="edgeStyle=orthogonalEdgeStyle;rounded=0;orthogonalLoop=1;jettySize=auto;html=1;" edge="1" parent="1" source="Qa4HK2fdvQcwyBmw-q11-1" target="Qa4HK2fdvQcwyBmw-q11-2">
          <mxGeometry relative="1" as="geometry" />
        </mxCell>
        <mxCell id="Qa4HK2fdvQcwyBmw-q11-1" value="Attack Selection" style="strokeWidth=2;html=1;shape=mxgraph.flowchart.start_1;whiteSpace=wrap;" vertex="1" parent="1">
          <mxGeometry x="340" y="130" width="100" height="60" as="geometry" />
        </mxCell>
        <mxCell id="Qa4HK2fdvQcwyBmw-q11-6" value="" style="edgeStyle=orthogonalEdgeStyle;rounded=0;orthogonalLoop=1;jettySize=auto;html=1;" edge="1" parent="1" source="Qa4HK2fdvQcwyBmw-q11-2" target="Qa4HK2fdvQcwyBmw-q11-5">
          <mxGeometry relative="1" as="geometry" />
        </mxCell>
        <mxCell id="Qa4HK2fdvQcwyBmw-q11-2" value="Key input detected" style="rounded=0;whiteSpace=wrap;html=1;" vertex="1" parent="1">
          <mxGeometry x="330" y="220" width="120" height="40" as="geometry" />
        </mxCell>
        <mxCell id="Qa4HK2fdvQcwyBmw-q11-8" value="" style="edgeStyle=orthogonalEdgeStyle;rounded=0;orthogonalLoop=1;jettySize=auto;html=1;" edge="1" parent="1" source="Qa4HK2fdvQcwyBmw-q11-5" target="Qa4HK2fdvQcwyBmw-q11-7">
          <mxGeometry relative="1" as="geometry" />
        </mxCell>
        <mxCell id="Qa4HK2fdvQcwyBmw-q11-10" value="" style="edgeStyle=orthogonalEdgeStyle;rounded=0;orthogonalLoop=1;jettySize=auto;html=1;" edge="1" parent="1" source="Qa4HK2fdvQcwyBmw-q11-5" target="Qa4HK2fdvQcwyBmw-q11-9">
          <mxGeometry relative="1" as="geometry" />
        </mxCell>
        <mxCell id="Qa4HK2fdvQcwyBmw-q11-5" value="Keys: 1 - 9 pressed?" style="rhombus;whiteSpace=wrap;html=1;" vertex="1" parent="1">
          <mxGeometry x="340" y="280" width="100" height="100" as="geometry" />
        </mxCell>
        <mxCell id="Qa4HK2fdvQcwyBmw-q11-7" value="Select weapon slot &lt;br&gt;1 - 9 (respectively)" style="rounded=0;whiteSpace=wrap;html=1;" vertex="1" parent="1">
          <mxGeometry x="160" y="310" width="120" height="40" as="geometry" />
        </mxCell>
        <mxCell id="Qa4HK2fdvQcwyBmw-q11-12" value="" style="edgeStyle=orthogonalEdgeStyle;rounded=0;orthogonalLoop=1;jettySize=auto;html=1;" edge="1" parent="1" source="Qa4HK2fdvQcwyBmw-q11-9" target="Qa4HK2fdvQcwyBmw-q11-11">
          <mxGeometry relative="1" as="geometry" />
        </mxCell>
        <mxCell id="Qa4HK2fdvQcwyBmw-q11-14" value="" style="edgeStyle=orthogonalEdgeStyle;rounded=0;orthogonalLoop=1;jettySize=auto;html=1;" edge="1" parent="1" source="Qa4HK2fdvQcwyBmw-q11-9" target="Qa4HK2fdvQcwyBmw-q11-13">
          <mxGeometry relative="1" as="geometry" />
        </mxCell>
        <mxCell id="Qa4HK2fdvQcwyBmw-q11-9" value="E key pressed?" style="rhombus;whiteSpace=wrap;html=1;" vertex="1" parent="1">
          <mxGeometry x="340" y="400" width="100" height="100" as="geometry" />
        </mxCell>
        <mxCell id="Qa4HK2fdvQcwyBmw-q11-11" value="Select the weapon slot to the right" style="rounded=0;whiteSpace=wrap;html=1;" vertex="1" parent="1">
          <mxGeometry x="160" y="430" width="120" height="40" as="geometry" />
        </mxCell>
        <mxCell id="Qa4HK2fdvQcwyBmw-q11-16" value="" style="edgeStyle=orthogonalEdgeStyle;rounded=0;orthogonalLoop=1;jettySize=auto;html=1;" edge="1" parent="1" source="Qa4HK2fdvQcwyBmw-q11-13" target="Qa4HK2fdvQcwyBmw-q11-15">
          <mxGeometry relative="1" as="geometry" />
        </mxCell>
        <mxCell id="Qa4HK2fdvQcwyBmw-q11-18" value="" style="edgeStyle=orthogonalEdgeStyle;rounded=0;orthogonalLoop=1;jettySize=auto;html=1;" edge="1" parent="1" source="Qa4HK2fdvQcwyBmw-q11-13" target="Qa4HK2fdvQcwyBmw-q11-17">
          <mxGeometry relative="1" as="geometry" />
        </mxCell>
        <mxCell id="Qa4HK2fdvQcwyBmw-q11-13" value="Q key pressed?" style="rhombus;whiteSpace=wrap;html=1;" vertex="1" parent="1">
          <mxGeometry x="340" y="520" width="100" height="100" as="geometry" />
        </mxCell>
        <mxCell id="Qa4HK2fdvQcwyBmw-q11-15" value="Select the weapon slot to the Left" style="rounded=0;whiteSpace=wrap;html=1;" vertex="1" parent="1">
          <mxGeometry x="160" y="550" width="120" height="40" as="geometry" />
        </mxCell>
        <mxCell id="Qa4HK2fdvQcwyBmw-q11-17" value="End" style="strokeWidth=2;html=1;shape=mxgraph.flowchart.start_1;whiteSpace=wrap;" vertex="1" parent="1">
          <mxGeometry x="340" y="650" width="100" height="60" as="geometry" />
        </mxCell>
      </root>
    </mxGraphModel>
  </diagram>
</mxfile>
